<mxfile host="localhost" modified="2020-05-21T20:34:32.789Z" agent="5.0 (Windows NT 10.0; Win64; x64) AppleWebKit/537.36 (KHTML, like Gecko) Code/1.45.1 Chrome/78.0.3904.130 Electron/7.2.4 Safari/537.36" etag="cXnUG0_pdDTLcPdLDdle" version="13.0.9" pages="2">
    <diagram id="6hGFLwfOUW9BJ-s0fimq" name="Page-1">
        <mxGraphModel dx="626" dy="480" grid="1" gridSize="10" guides="1" tooltips="1" connect="1" arrows="1" fold="1" page="1" pageScale="1" pageWidth="827" pageHeight="1169" background="none" math="0" shadow="0">
            <root>
                <mxCell id="0"/>
                <mxCell id="1" parent="0"/>
                <mxCell id="2" value="" style="rounded=1;whiteSpace=wrap;html=1;fillColor=none;strokeColor=#04BF68;" parent="1" vertex="1">
                    <mxGeometry x="40" y="30" width="240" height="560" as="geometry"/>
                </mxCell>
                <mxCell id="3" value="Applications" style="text;html=1;strokeColor=none;fillColor=none;align=center;verticalAlign=middle;whiteSpace=wrap;rounded=0;fontFamily=Verdana;fontSize=17;fontColor=#04BF68;" parent="1" vertex="1">
                    <mxGeometry x="150" y="40" width="20" height="20" as="geometry"/>
                </mxCell>
                <mxCell id="4" value="VS Code&amp;nbsp;" style="rounded=1;whiteSpace=wrap;html=1;fontFamily=Verdana;fontSize=13;strokeColor=#02A676;" parent="1" vertex="1">
                    <mxGeometry x="105" y="90" width="110" height="30" as="geometry"/>
                </mxCell>
                <mxCell id="5" value="Visual Studio&amp;nbsp;" style="rounded=1;whiteSpace=wrap;html=1;fontFamily=Verdana;fontSize=13;dashed=1;strokeColor=#02A676;" parent="1" vertex="1">
                    <mxGeometry x="105" y="130" width="110" height="30" as="geometry"/>
                </mxCell>
                <mxCell id="6" value="Spark.NET&amp;nbsp;&lt;br&gt;&lt;font style=&quot;font-size: 9px&quot;&gt;Azure Synapse&lt;/font&gt;&amp;nbsp;" style="rounded=1;whiteSpace=wrap;html=1;fontFamily=Verdana;fontSize=13;strokeColor=#02A676;" parent="1" vertex="1">
                    <mxGeometry x="105" y="180" width="110" height="30" as="geometry"/>
                </mxCell>
                <mxCell id="8" value="Jupyter&amp;nbsp;" style="rounded=1;whiteSpace=wrap;html=1;fontFamily=Verdana;fontSize=13;strokeColor=#02A676;" parent="1" vertex="1">
                    <mxGeometry x="105" y="240" width="110" height="30" as="geometry"/>
                </mxCell>
                <mxCell id="9" value="JupyterLab" style="rounded=1;whiteSpace=wrap;html=1;fontFamily=Verdana;fontSize=13;strokeColor=#02A676;" parent="1" vertex="1">
                    <mxGeometry x="105" y="280" width="110" height="30" as="geometry"/>
                </mxCell>
                <mxCell id="10" value="nteract&amp;nbsp;" style="rounded=1;whiteSpace=wrap;html=1;fontFamily=Verdana;fontSize=13;strokeColor=#02A676;" parent="1" vertex="1">
                    <mxGeometry x="105" y="320" width="110" height="30" as="geometry"/>
                </mxCell>
                <mxCell id="11" value="Try .NET&amp;nbsp;" style="rounded=1;whiteSpace=wrap;html=1;fontFamily=Verdana;fontSize=13;strokeColor=#02A676;" parent="1" vertex="1">
                    <mxGeometry x="105" y="370" width="110" height="30" as="geometry"/>
                </mxCell>
                <mxCell id="12" value="Teams + bots&lt;br&gt;&lt;font style=&quot;font-size: 11px&quot;&gt;&lt;i&gt;code bots&amp;nbsp;&lt;/i&gt;&lt;/font&gt;" style="rounded=1;whiteSpace=wrap;html=1;fontFamily=Verdana;fontSize=13;strokeColor=#02A676;" parent="1" vertex="1">
                    <mxGeometry x="105" y="410" width="110" height="30" as="geometry"/>
                </mxCell>
                <mxCell id="13" value="Office&lt;br&gt;&lt;font style=&quot;font-size: 11px&quot;&gt;Fluid Framework&amp;nbsp;&lt;/font&gt;" style="rounded=1;whiteSpace=wrap;html=1;fontFamily=Verdana;fontSize=13;dashed=1;strokeColor=#02A676;" parent="1" vertex="1">
                    <mxGeometry x="105" y="450" width="110" height="30" as="geometry"/>
                </mxCell>
                <mxCell id="14" value="REPL" style="rounded=1;whiteSpace=wrap;html=1;fontFamily=Verdana;fontSize=13;dashed=1;strokeColor=#02A676;" parent="1" vertex="1">
                    <mxGeometry x="105" y="530" width="110" height="30" as="geometry"/>
                </mxCell>
                <mxCell id="18" value="" style="rounded=1;whiteSpace=wrap;html=1;fillColor=none;strokeColor=#142273;" parent="1" vertex="1">
                    <mxGeometry x="414" y="30" width="190" height="560" as="geometry"/>
                </mxCell>
                <mxCell id="21" value="Protocols / transports&amp;nbsp;" style="text;html=1;strokeColor=none;fillColor=none;align=center;verticalAlign=middle;whiteSpace=wrap;rounded=0;dashed=1;fontFamily=Verdana;fontSize=15;fontColor=#142273;" parent="1" vertex="1">
                    <mxGeometry x="450" y="60" width="110" height="20" as="geometry"/>
                </mxCell>
                <mxCell id="23" value="Standard&lt;br style=&quot;font-size: 10px;&quot;&gt;I/O" style="shape=doubleArrow;whiteSpace=wrap;html=1;fontFamily=Verdana;fontSize=10;fillColor=#142273;strokeColor=#142273;" parent="1" vertex="1">
                    <mxGeometry x="435" y="105" width="140" height="80" as="geometry"/>
                </mxCell>
                <mxCell id="28" value="ZeroMQ" style="shape=doubleArrow;whiteSpace=wrap;html=1;fontFamily=Verdana;fontSize=10;fillColor=#142273;strokeColor=#142273;" parent="1" vertex="1">
                    <mxGeometry x="435" y="255" width="140" height="80" as="geometry"/>
                </mxCell>
                <mxCell id="30" value="HTTP&amp;nbsp;" style="shape=doubleArrow;whiteSpace=wrap;html=1;fontFamily=Verdana;fontSize=10;fillColor=#142273;strokeColor=#142273;" parent="1" vertex="1">
                    <mxGeometry x="439" y="410" width="140" height="80" as="geometry"/>
                </mxCell>
                <mxCell id="qnYajniLqLIKW50oyFN9-30" value="" style="rounded=1;whiteSpace=wrap;html=1;fillColor=none;strokeColor=#5C73F2;" parent="1" vertex="1">
                    <mxGeometry x="790" y="30" width="780" height="560" as="geometry"/>
                </mxCell>
                <mxCell id="qnYajniLqLIKW50oyFN9-31" value="Execution and&amp;nbsp;&lt;br&gt;Language Services&amp;nbsp;" style="text;html=1;strokeColor=none;fillColor=none;align=center;verticalAlign=middle;whiteSpace=wrap;rounded=0;fontFamily=Verdana;fontSize=15;fontColor=#5C73F2;" parent="1" vertex="1">
                    <mxGeometry x="930" y="60" width="400" height="20" as="geometry"/>
                </mxCell>
                <mxCell id="qnYajniLqLIKW50oyFN9-32" value="" style="rounded=1;whiteSpace=wrap;html=1;fontFamily=Verdana;fontSize=15;fillColor=none;strokeColor=#82B8D9;" parent="1" vertex="1">
                    <mxGeometry x="840" y="110" width="410" height="460" as="geometry"/>
                </mxCell>
                <mxCell id="qnYajniLqLIKW50oyFN9-33" value="dotnet-interactive" style="text;html=1;strokeColor=none;fillColor=none;align=center;verticalAlign=middle;whiteSpace=wrap;rounded=0;fontFamily=Verdana;fontSize=13;" parent="1" vertex="1">
                    <mxGeometry x="952.75" y="120" width="190" height="20" as="geometry"/>
                </mxCell>
                <mxCell id="qnYajniLqLIKW50oyFN9-37" value="Proxy kernel" style="rounded=1;whiteSpace=wrap;html=1;fontFamily=Verdana;fontSize=15;dashed=1;strokeColor=#5C73F2;" parent="1" vertex="1">
                    <mxGeometry x="922" y="490" width="120" height="50" as="geometry"/>
                </mxCell>
                <mxCell id="qnYajniLqLIKW50oyFN9-40" value="" style="ellipse;whiteSpace=wrap;html=1;aspect=fixed;fontFamily=Verdana;fontSize=15;strokeColor=#5C73F2;" parent="1" vertex="1">
                    <mxGeometry x="1016.5" y="147.5" width="62.5" height="62.5" as="geometry"/>
                </mxCell>
                <mxCell id="qnYajniLqLIKW50oyFN9-41" value="C#" style="rounded=1;whiteSpace=wrap;html=1;fontFamily=Verdana;fontSize=15;fillColor=#5C73F2;strokeColor=#5C73F2;" parent="1" vertex="1">
                    <mxGeometry x="935" y="180" width="120" height="60" as="geometry"/>
                </mxCell>
                <mxCell id="qnYajniLqLIKW50oyFN9-43" value="" style="ellipse;whiteSpace=wrap;html=1;aspect=fixed;fontFamily=Verdana;fontSize=15;strokeColor=#5C73F2;" parent="1" vertex="1">
                    <mxGeometry x="1005" y="270" width="60" height="60" as="geometry"/>
                </mxCell>
                <mxCell id="qnYajniLqLIKW50oyFN9-46" value="F#" style="rounded=1;whiteSpace=wrap;html=1;fontFamily=Verdana;fontSize=15;strokeColor=#5C73F2;fillColor=#5C73F2;" parent="1" vertex="1">
                    <mxGeometry x="907" y="300" width="120" height="60" as="geometry"/>
                </mxCell>
                <mxCell id="qnYajniLqLIKW50oyFN9-47" value="" style="ellipse;whiteSpace=wrap;html=1;aspect=fixed;fontFamily=Verdana;fontSize=15;strokeColor=#5C73F2;" parent="1" vertex="1">
                    <mxGeometry x="1015.25" y="362.5" width="65" height="65" as="geometry"/>
                </mxCell>
                <mxCell id="qnYajniLqLIKW50oyFN9-48" value="PowerShell" style="rounded=1;whiteSpace=wrap;html=1;fontFamily=Verdana;fontSize=15;strokeColor=#5C73F2;fillColor=#5C73F2;" parent="1" vertex="1">
                    <mxGeometry x="922" y="410" width="120" height="60" as="geometry"/>
                </mxCell>
                <mxCell id="qnYajniLqLIKW50oyFN9-49" value="Custom&lt;br style=&quot;font-size: 12px&quot;&gt;DSLs" style="rounded=1;whiteSpace=wrap;html=1;fontFamily=Verdana;fontSize=12;dashed=1;strokeColor=#5C73F2;" parent="1" vertex="1">
                    <mxGeometry x="1130" y="156" width="90" height="40" as="geometry"/>
                </mxCell>
                <mxCell id="qnYajniLqLIKW50oyFN9-51" value="SQLS" style="rounded=1;whiteSpace=wrap;html=1;fontFamily=Verdana;fontSize=12;dashed=1;strokeColor=#5C73F2;" parent="1" vertex="1">
                    <mxGeometry x="1112" y="190" width="90" height="40" as="geometry"/>
                </mxCell>
                <mxCell id="qnYajniLqLIKW50oyFN9-52" value="Python" style="rounded=1;whiteSpace=wrap;html=1;fontFamily=Verdana;fontSize=15;dashed=1;strokeColor=#5C73F2;" parent="1" vertex="1">
                    <mxGeometry x="1370" y="220" width="120" height="60" as="geometry"/>
                </mxCell>
                <mxCell id="qnYajniLqLIKW50oyFN9-53" value="Node" style="rounded=1;whiteSpace=wrap;html=1;fontFamily=Verdana;fontSize=15;dashed=1;strokeColor=#5C73F2;" parent="1" vertex="1">
                    <mxGeometry x="1370" y="300" width="120" height="60" as="geometry"/>
                </mxCell>
                <mxCell id="qnYajniLqLIKW50oyFN9-54" value="" style="rounded=1;whiteSpace=wrap;html=1;fontFamily=Verdana;fontSize=12;strokeColor=#F24141;" parent="1" vertex="1">
                    <mxGeometry x="1350" y="390" width="170" height="190" as="geometry"/>
                </mxCell>
                <mxCell id="qnYajniLqLIKW50oyFN9-55" value="Your App" style="text;html=1;strokeColor=none;fillColor=none;align=center;verticalAlign=middle;whiteSpace=wrap;rounded=0;fontFamily=Verdana;fontSize=12;" parent="1" vertex="1">
                    <mxGeometry x="1405" y="410" width="60" height="20" as="geometry"/>
                </mxCell>
                <mxCell id="qnYajniLqLIKW50oyFN9-56" value="&lt;font size=&quot;1&quot;&gt;&lt;br&gt;dotnet-interactive Embedded&lt;br&gt;&lt;/font&gt;" style="rounded=1;whiteSpace=wrap;html=1;fontFamily=Verdana;fontSize=12;strokeColor=#F57336;" parent="1" vertex="1">
                    <mxGeometry x="1360" y="440" width="150" height="130" as="geometry"/>
                </mxCell>
                <mxCell id="qnYajniLqLIKW50oyFN9-65" value="" style="endArrow=none;html=1;fontFamily=Verdana;fontSize=12;exitX=1;exitY=0.5;exitDx=0;exitDy=0;curved=1;strokeColor=#142273;" parent="1" source="4" edge="1">
                    <mxGeometry width="50" height="50" relative="1" as="geometry">
                        <mxPoint x="260" y="270" as="sourcePoint"/>
                        <mxPoint x="435" y="145" as="targetPoint"/>
                        <Array as="points">
                            <mxPoint x="370" y="50"/>
                        </Array>
                    </mxGeometry>
                </mxCell>
                <mxCell id="qnYajniLqLIKW50oyFN9-67" value="" style="endArrow=none;html=1;fontFamily=Verdana;fontSize=12;exitX=1;exitY=0.5;exitDx=0;exitDy=0;dashed=1;entryX=0;entryY=0.5;entryDx=0;entryDy=0;entryPerimeter=0;fillColor=#1ba1e2;strokeColor=#006EAF;" parent="1" source="5" target="23" edge="1">
                    <mxGeometry width="50" height="50" relative="1" as="geometry">
                        <mxPoint x="260" y="270" as="sourcePoint"/>
                        <mxPoint x="430" y="145" as="targetPoint"/>
                    </mxGeometry>
                </mxCell>
                <mxCell id="qnYajniLqLIKW50oyFN9-69" value="" style="endArrow=none;html=1;fontFamily=Verdana;fontSize=12;exitX=1;exitY=0.5;exitDx=0;exitDy=0;curved=1;entryX=0;entryY=0.5;entryDx=0;entryDy=0;entryPerimeter=0;strokeColor=#142273;" parent="1" source="6" target="23" edge="1">
                    <mxGeometry width="50" height="50" relative="1" as="geometry">
                        <mxPoint x="260" y="270" as="sourcePoint"/>
                        <mxPoint x="430" y="150" as="targetPoint"/>
                        <Array as="points">
                            <mxPoint x="290" y="240"/>
                        </Array>
                    </mxGeometry>
                </mxCell>
                <mxCell id="qnYajniLqLIKW50oyFN9-70" value="" style="endArrow=none;html=1;fontFamily=Verdana;fontSize=12;exitX=1;exitY=0.5;exitDx=0;exitDy=0;entryX=0;entryY=0.5;entryDx=0;entryDy=0;entryPerimeter=0;curved=1;strokeColor=#142273;" parent="1" source="8" target="28" edge="1">
                    <mxGeometry width="50" height="50" relative="1" as="geometry">
                        <mxPoint x="260" y="300" as="sourcePoint"/>
                        <mxPoint x="310" y="250" as="targetPoint"/>
                        <Array as="points">
                            <mxPoint x="350" y="230"/>
                        </Array>
                    </mxGeometry>
                </mxCell>
                <mxCell id="qnYajniLqLIKW50oyFN9-71" value="" style="endArrow=none;html=1;fontFamily=Verdana;fontSize=12;exitX=1;exitY=0.5;exitDx=0;exitDy=0;entryX=0;entryY=0.5;entryDx=0;entryDy=0;entryPerimeter=0;curved=1;strokeColor=#142273;" parent="1" source="10" target="28" edge="1">
                    <mxGeometry width="50" height="50" relative="1" as="geometry">
                        <mxPoint x="260" y="300" as="sourcePoint"/>
                        <mxPoint x="310" y="250" as="targetPoint"/>
                        <Array as="points">
                            <mxPoint x="350" y="370"/>
                        </Array>
                    </mxGeometry>
                </mxCell>
                <mxCell id="qnYajniLqLIKW50oyFN9-72" value="" style="endArrow=none;html=1;fontFamily=Verdana;fontSize=12;exitX=1;exitY=0.5;exitDx=0;exitDy=0;curved=1;strokeColor=#142273;" parent="1" source="9" edge="1">
                    <mxGeometry width="50" height="50" relative="1" as="geometry">
                        <mxPoint x="250" y="310" as="sourcePoint"/>
                        <mxPoint x="440" y="295" as="targetPoint"/>
                    </mxGeometry>
                </mxCell>
                <mxCell id="qnYajniLqLIKW50oyFN9-73" value="" style="endArrow=none;dashed=1;html=1;fontFamily=Verdana;fontSize=12;exitX=1;exitY=0.5;exitDx=0;exitDy=0;entryX=0;entryY=0.5;entryDx=0;entryDy=0;entryPerimeter=0;curved=1;fillColor=#1ba1e2;strokeColor=#006EAF;" parent="1" source="8" target="30" edge="1">
                    <mxGeometry width="50" height="50" relative="1" as="geometry">
                        <mxPoint x="420" y="510" as="sourcePoint"/>
                        <mxPoint x="470" y="460" as="targetPoint"/>
                        <Array as="points">
                            <mxPoint x="370" y="310"/>
                        </Array>
                    </mxGeometry>
                </mxCell>
                <mxCell id="qnYajniLqLIKW50oyFN9-76" value="" style="endArrow=none;dashed=1;html=1;fontFamily=Verdana;fontSize=12;exitX=1;exitY=0.5;exitDx=0;exitDy=0;curved=1;fillColor=#1ba1e2;strokeColor=#006EAF;" parent="1" source="9" edge="1">
                    <mxGeometry width="50" height="50" relative="1" as="geometry">
                        <mxPoint x="229" y="300" as="sourcePoint"/>
                        <mxPoint x="439" y="450" as="targetPoint"/>
                        <Array as="points">
                            <mxPoint x="350" y="330"/>
                        </Array>
                    </mxGeometry>
                </mxCell>
                <mxCell id="qnYajniLqLIKW50oyFN9-77" value="" style="endArrow=none;dashed=1;html=1;fontFamily=Verdana;fontSize=12;exitX=1;exitY=0.5;exitDx=0;exitDy=0;entryX=-0.026;entryY=0.417;entryDx=0;entryDy=0;entryPerimeter=0;curved=1;fillColor=#1ba1e2;strokeColor=#006EAF;" parent="1" source="10" target="30" edge="1">
                    <mxGeometry width="50" height="50" relative="1" as="geometry">
                        <mxPoint x="450" y="500" as="sourcePoint"/>
                        <mxPoint x="500" y="450" as="targetPoint"/>
                        <Array as="points">
                            <mxPoint x="350" y="350"/>
                        </Array>
                    </mxGeometry>
                </mxCell>
                <mxCell id="qnYajniLqLIKW50oyFN9-80" value="" style="endArrow=none;html=1;fontFamily=Verdana;fontSize=12;exitX=1;exitY=0.5;exitDx=0;exitDy=0;curved=1;strokeColor=#142273;" parent="1" source="12" edge="1">
                    <mxGeometry width="50" height="50" relative="1" as="geometry">
                        <mxPoint x="240" y="490" as="sourcePoint"/>
                        <mxPoint x="440" y="450" as="targetPoint"/>
                        <Array as="points">
                            <mxPoint x="330" y="460"/>
                        </Array>
                    </mxGeometry>
                </mxCell>
                <mxCell id="qnYajniLqLIKW50oyFN9-81" value="" style="endArrow=none;dashed=1;html=1;fontFamily=Verdana;fontSize=12;exitX=1;exitY=0.5;exitDx=0;exitDy=0;curved=1;fillColor=#1ba1e2;strokeColor=#006EAF;" parent="1" source="11" edge="1">
                    <mxGeometry width="50" height="50" relative="1" as="geometry">
                        <mxPoint x="240" y="490" as="sourcePoint"/>
                        <mxPoint x="440" y="450" as="targetPoint"/>
                        <Array as="points">
                            <mxPoint x="330" y="400"/>
                        </Array>
                    </mxGeometry>
                </mxCell>
                <mxCell id="qnYajniLqLIKW50oyFN9-82" value="" style="endArrow=none;dashed=1;html=1;fontFamily=Verdana;fontSize=12;exitX=1;exitY=0.5;exitDx=0;exitDy=0;curved=1;fillColor=#1ba1e2;strokeColor=#006EAF;" parent="1" source="13" edge="1">
                    <mxGeometry width="50" height="50" relative="1" as="geometry">
                        <mxPoint x="240" y="490" as="sourcePoint"/>
                        <mxPoint x="440" y="450" as="targetPoint"/>
                        <Array as="points">
                            <mxPoint x="330" y="490"/>
                        </Array>
                    </mxGeometry>
                </mxCell>
                <mxCell id="qnYajniLqLIKW50oyFN9-86" value="" style="ellipse;whiteSpace=wrap;html=1;aspect=fixed;fontFamily=Verdana;fontSize=12;strokeColor=#142273;fillColor=#142273;" parent="1" vertex="1">
                    <mxGeometry x="810" y="315" width="55" height="55" as="geometry"/>
                </mxCell>
                <mxCell id="qnYajniLqLIKW50oyFN9-87" value="" style="endArrow=none;html=1;fontFamily=Verdana;fontSize=12;exitX=1;exitY=0.5;exitDx=0;exitDy=0;exitPerimeter=0;entryX=0;entryY=0;entryDx=0;entryDy=0;curved=1;strokeColor=#142273;" parent="1" source="23" target="qnYajniLqLIKW50oyFN9-86" edge="1">
                    <mxGeometry width="50" height="50" relative="1" as="geometry">
                        <mxPoint x="650" y="300" as="sourcePoint"/>
                        <mxPoint x="700" y="250" as="targetPoint"/>
                        <Array as="points">
                            <mxPoint x="750" y="120"/>
                        </Array>
                    </mxGeometry>
                </mxCell>
                <mxCell id="qnYajniLqLIKW50oyFN9-88" value="" style="endArrow=none;html=1;fontFamily=Verdana;fontSize=12;exitX=1;exitY=0.5;exitDx=0;exitDy=0;exitPerimeter=0;entryX=0;entryY=0.5;entryDx=0;entryDy=0;curved=1;strokeColor=#142273;" parent="1" source="28" target="qnYajniLqLIKW50oyFN9-86" edge="1">
                    <mxGeometry width="50" height="50" relative="1" as="geometry">
                        <mxPoint x="650" y="300" as="sourcePoint"/>
                        <mxPoint x="700" y="250" as="targetPoint"/>
                        <Array as="points">
                            <mxPoint x="700" y="280"/>
                        </Array>
                    </mxGeometry>
                </mxCell>
                <mxCell id="qnYajniLqLIKW50oyFN9-89" value="" style="endArrow=none;html=1;fontFamily=Verdana;fontSize=12;exitX=1;exitY=0.5;exitDx=0;exitDy=0;exitPerimeter=0;entryX=0;entryY=1;entryDx=0;entryDy=0;curved=1;strokeColor=#142273;" parent="1" source="30" target="qnYajniLqLIKW50oyFN9-86" edge="1">
                    <mxGeometry width="50" height="50" relative="1" as="geometry">
                        <mxPoint x="650" y="290" as="sourcePoint"/>
                        <mxPoint x="700" y="240" as="targetPoint"/>
                        <Array as="points">
                            <mxPoint x="760" y="480"/>
                        </Array>
                    </mxGeometry>
                </mxCell>
                <mxCell id="qnYajniLqLIKW50oyFN9-91" value="" style="endArrow=none;dashed=1;html=1;fontFamily=Verdana;fontSize=12;curved=1;entryX=0.5;entryY=1;entryDx=0;entryDy=0;fillColor=#1ba1e2;strokeColor=#006EAF;" parent="1" target="qnYajniLqLIKW50oyFN9-86" edge="1">
                    <mxGeometry width="50" height="50" relative="1" as="geometry">
                        <mxPoint x="215" y="540" as="sourcePoint"/>
                        <mxPoint x="830" y="400" as="targetPoint"/>
                        <Array as="points">
                            <mxPoint x="600" y="710"/>
                        </Array>
                    </mxGeometry>
                </mxCell>
                <mxCell id="qnYajniLqLIKW50oyFN9-95" value="" style="endArrow=none;dashed=1;html=1;fontFamily=Verdana;fontSize=12;exitX=0;exitY=0.5;exitDx=0;exitDy=0;curved=1;fillColor=#1ba1e2;strokeColor=#006EAF;" parent="1" source="qnYajniLqLIKW50oyFN9-37" edge="1">
                    <mxGeometry width="50" height="50" relative="1" as="geometry">
                        <mxPoint x="811" y="430" as="sourcePoint"/>
                        <mxPoint x="850" y="370" as="targetPoint"/>
                        <Array as="points">
                            <mxPoint x="838" y="470"/>
                        </Array>
                    </mxGeometry>
                </mxCell>
                <mxCell id="qnYajniLqLIKW50oyFN9-96" value="" style="endArrow=none;html=1;fontFamily=Verdana;fontSize=12;exitX=1;exitY=0;exitDx=0;exitDy=0;entryX=0;entryY=0.5;entryDx=0;entryDy=0;curved=1;strokeColor=#142273;" parent="1" source="qnYajniLqLIKW50oyFN9-86" target="qnYajniLqLIKW50oyFN9-41" edge="1">
                    <mxGeometry width="50" height="50" relative="1" as="geometry">
                        <mxPoint x="1060" y="430" as="sourcePoint"/>
                        <mxPoint x="1110" y="380" as="targetPoint"/>
                        <Array as="points">
                            <mxPoint x="857" y="200"/>
                        </Array>
                    </mxGeometry>
                </mxCell>
                <mxCell id="qnYajniLqLIKW50oyFN9-97" value="" style="endArrow=none;html=1;fontFamily=Verdana;fontSize=12;exitX=1;exitY=0.5;exitDx=0;exitDy=0;entryX=0;entryY=0.5;entryDx=0;entryDy=0;strokeColor=#142273;" parent="1" source="qnYajniLqLIKW50oyFN9-86" target="qnYajniLqLIKW50oyFN9-46" edge="1">
                    <mxGeometry width="50" height="50" relative="1" as="geometry">
                        <mxPoint x="1060" y="430" as="sourcePoint"/>
                        <mxPoint x="1110" y="380" as="targetPoint"/>
                    </mxGeometry>
                </mxCell>
                <mxCell id="qnYajniLqLIKW50oyFN9-98" value="PowerApps" style="rounded=1;whiteSpace=wrap;html=1;fontFamily=Verdana;fontSize=13;dashed=1;strokeColor=#02A676;" parent="1" vertex="1">
                    <mxGeometry x="105" y="490" width="110" height="30" as="geometry"/>
                </mxCell>
                <mxCell id="qnYajniLqLIKW50oyFN9-99" style="edgeStyle=none;shape=link;curved=1;orthogonalLoop=1;jettySize=auto;html=1;exitX=0.75;exitY=1;exitDx=0;exitDy=0;fontFamily=Verdana;fontSize=12;" parent="1" source="qnYajniLqLIKW50oyFN9-53" target="qnYajniLqLIKW50oyFN9-53" edge="1">
                    <mxGeometry relative="1" as="geometry"/>
                </mxCell>
                <mxCell id="qnYajniLqLIKW50oyFN9-103" value="" style="endArrow=none;html=1;fontFamily=Verdana;fontSize=12;exitX=1;exitY=0.5;exitDx=0;exitDy=0;dashed=1;fillColor=#1ba1e2;strokeColor=#006EAF;" parent="1" source="qnYajniLqLIKW50oyFN9-37" edge="1">
                    <mxGeometry width="50" height="50" relative="1" as="geometry">
                        <mxPoint x="1090" y="420" as="sourcePoint"/>
                        <mxPoint x="1360" y="515" as="targetPoint"/>
                    </mxGeometry>
                </mxCell>
                <mxCell id="qnYajniLqLIKW50oyFN9-105" value="" style="endArrow=none;dashed=1;html=1;fontFamily=Verdana;fontSize=12;exitX=1;exitY=0.5;exitDx=0;exitDy=0;entryX=0;entryY=0.5;entryDx=0;entryDy=0;curved=1;fillColor=#1ba1e2;strokeColor=#006EAF;" parent="1" source="qnYajniLqLIKW50oyFN9-37" target="qnYajniLqLIKW50oyFN9-53" edge="1">
                    <mxGeometry width="50" height="50" relative="1" as="geometry">
                        <mxPoint x="1090" y="430" as="sourcePoint"/>
                        <mxPoint x="1140" y="380" as="targetPoint"/>
                        <Array as="points">
                            <mxPoint x="1260" y="490"/>
                        </Array>
                    </mxGeometry>
                </mxCell>
                <mxCell id="qnYajniLqLIKW50oyFN9-106" value="" style="endArrow=none;dashed=1;html=1;fontFamily=Verdana;fontSize=12;exitX=1;exitY=0.5;exitDx=0;exitDy=0;entryX=0;entryY=0.5;entryDx=0;entryDy=0;curved=1;strokeColor=#006EAF;" parent="1" source="qnYajniLqLIKW50oyFN9-37" target="qnYajniLqLIKW50oyFN9-52" edge="1">
                    <mxGeometry width="50" height="50" relative="1" as="geometry">
                        <mxPoint x="1090" y="430" as="sourcePoint"/>
                        <mxPoint x="1140" y="380" as="targetPoint"/>
                        <Array as="points">
                            <mxPoint x="1260" y="430"/>
                        </Array>
                    </mxGeometry>
                </mxCell>
                <mxCell id="qnYajniLqLIKW50oyFN9-107" value="" style="endArrow=none;dashed=1;html=1;fontFamily=Verdana;fontSize=12;exitX=1;exitY=0.5;exitDx=0;exitDy=0;entryX=0;entryY=0.5;entryDx=0;entryDy=0;entryPerimeter=0;curved=1;fillColor=#1ba1e2;strokeColor=#006EAF;" parent="1" source="qnYajniLqLIKW50oyFN9-98" target="30" edge="1">
                    <mxGeometry width="50" height="50" relative="1" as="geometry">
                        <mxPoint x="440" y="500" as="sourcePoint"/>
                        <mxPoint x="490" y="450" as="targetPoint"/>
                        <Array as="points">
                            <mxPoint x="350" y="540"/>
                        </Array>
                    </mxGeometry>
                </mxCell>
                <mxCell id="qnYajniLqLIKW50oyFN9-108" value="Roslyn" style="text;html=1;strokeColor=none;fillColor=none;align=center;verticalAlign=middle;whiteSpace=wrap;rounded=0;fontFamily=Verdana;fontSize=11;" parent="1" vertex="1">
                    <mxGeometry x="1027" y="156" width="40" height="24" as="geometry"/>
                </mxCell>
                <mxCell id="qnYajniLqLIKW50oyFN9-109" value="FSI" style="text;html=1;strokeColor=none;fillColor=none;align=center;verticalAlign=middle;whiteSpace=wrap;rounded=0;fontFamily=Verdana;fontSize=11;" parent="1" vertex="1">
                    <mxGeometry x="1015" y="280" width="40" height="20" as="geometry"/>
                </mxCell>
                <mxCell id="qnYajniLqLIKW50oyFN9-110" value="pwsh&lt;br&gt;host" style="text;html=1;strokeColor=none;fillColor=none;align=center;verticalAlign=middle;whiteSpace=wrap;rounded=0;fontFamily=Verdana;fontSize=11;" parent="1" vertex="1">
                    <mxGeometry x="1016.5" y="380" width="55" height="30" as="geometry"/>
                </mxCell>
                <mxCell id="qnYajniLqLIKW50oyFN9-117" value="" style="endArrow=none;html=1;fontFamily=Verdana;fontSize=11;exitX=1;exitY=1;exitDx=0;exitDy=0;entryX=0;entryY=0.5;entryDx=0;entryDy=0;curved=1;strokeColor=#142273;" parent="1" source="qnYajniLqLIKW50oyFN9-86" target="qnYajniLqLIKW50oyFN9-48" edge="1">
                    <mxGeometry width="50" height="50" relative="1" as="geometry">
                        <mxPoint x="1180" y="390" as="sourcePoint"/>
                        <mxPoint x="1230" y="340" as="targetPoint"/>
                        <Array as="points">
                            <mxPoint x="880" y="430"/>
                        </Array>
                    </mxGeometry>
                </mxCell>
            </root>
        </mxGraphModel>
    </diagram>
    <diagram id="2gcgt2CIJ7bUjN42CXpD" name="Page-2">
        &#xa;        
        <mxGraphModel dx="626" dy="480" grid="1" gridSize="10" guides="1" tooltips="1" connect="1" arrows="1" fold="1" page="1" pageScale="1" pageWidth="850" pageHeight="1100" math="0" shadow="0">
            &#xa;            
            <root>
                &#xa;                
                <mxCell id="EL7KFxLL_ZjWIIZb744D-0"/>
                &#xa;                
                <mxCell id="EL7KFxLL_ZjWIIZb744D-1" parent="EL7KFxLL_ZjWIIZb744D-0"/>
                &#xa;            
            </root>
            &#xa;        
        </mxGraphModel>
        &#xa;    
    </diagram>
</mxfile>